<mxfile host="app.diagrams.net" modified="2023-12-07T22:33:27.704Z" agent="Mozilla/5.0 (Macintosh; Intel Mac OS X 10_15_7) AppleWebKit/537.36 (KHTML, like Gecko) Chrome/120.0.0.0 Safari/537.36" etag="DhBXOL8Gy6Lngx7L2U44" version="22.1.7" type="device">
  <diagram name="Page-1" id="18nOcIHZLXmO_JvSYVbD">
    <mxGraphModel dx="1225" dy="780" grid="1" gridSize="10" guides="1" tooltips="1" connect="1" arrows="1" fold="1" page="1" pageScale="1" pageWidth="850" pageHeight="1100" math="0" shadow="0">
      <root>
        <mxCell id="0" />
        <mxCell id="1" parent="0" />
        <mxCell id="LASjsoPwDw27AKE4j7nq-1" value="Application Gateway&lt;br&gt;port: 8080" style="rounded=1;whiteSpace=wrap;html=1;" vertex="1" parent="1">
          <mxGeometry x="160" y="240" width="120" height="60" as="geometry" />
        </mxCell>
        <mxCell id="LASjsoPwDw27AKE4j7nq-2" value="Service 2&lt;br&gt;port: 8083" style="rounded=1;whiteSpace=wrap;html=1;" vertex="1" parent="1">
          <mxGeometry x="400" y="340" width="120" height="60" as="geometry" />
        </mxCell>
        <mxCell id="LASjsoPwDw27AKE4j7nq-3" value="Eureka Service Discovery&lt;br&gt;port: 8081" style="rounded=1;whiteSpace=wrap;html=1;labelBackgroundColor=none;labelBorderColor=none;fillColor=#d3cfcf;" vertex="1" parent="1">
          <mxGeometry x="420" y="240" width="120" height="60" as="geometry" />
        </mxCell>
        <mxCell id="LASjsoPwDw27AKE4j7nq-4" value="Service 1&lt;br&gt;port: 8082" style="rounded=1;whiteSpace=wrap;html=1;" vertex="1" parent="1">
          <mxGeometry x="400" y="140" width="120" height="60" as="geometry" />
        </mxCell>
        <mxCell id="LASjsoPwDw27AKE4j7nq-5" value="" style="endArrow=classic;startArrow=classic;html=1;rounded=0;exitX=1;exitY=0.5;exitDx=0;exitDy=0;entryX=0;entryY=0.5;entryDx=0;entryDy=0;" edge="1" parent="1" source="LASjsoPwDw27AKE4j7nq-1" target="LASjsoPwDw27AKE4j7nq-3">
          <mxGeometry width="50" height="50" relative="1" as="geometry">
            <mxPoint x="400" y="310" as="sourcePoint" />
            <mxPoint x="450" y="260" as="targetPoint" />
          </mxGeometry>
        </mxCell>
        <mxCell id="LASjsoPwDw27AKE4j7nq-6" value="" style="endArrow=classic;html=1;rounded=0;entryX=0;entryY=0.5;entryDx=0;entryDy=0;exitX=1;exitY=0.25;exitDx=0;exitDy=0;" edge="1" parent="1" source="LASjsoPwDw27AKE4j7nq-1" target="LASjsoPwDw27AKE4j7nq-4">
          <mxGeometry width="50" height="50" relative="1" as="geometry">
            <mxPoint x="400" y="310" as="sourcePoint" />
            <mxPoint x="450" y="260" as="targetPoint" />
          </mxGeometry>
        </mxCell>
        <mxCell id="LASjsoPwDw27AKE4j7nq-7" value="" style="endArrow=classic;html=1;rounded=0;entryX=0;entryY=0.5;entryDx=0;entryDy=0;exitX=1;exitY=0.75;exitDx=0;exitDy=0;" edge="1" parent="1" source="LASjsoPwDw27AKE4j7nq-1" target="LASjsoPwDw27AKE4j7nq-2">
          <mxGeometry width="50" height="50" relative="1" as="geometry">
            <mxPoint x="290" y="265" as="sourcePoint" />
            <mxPoint x="410" y="180" as="targetPoint" />
          </mxGeometry>
        </mxCell>
        <mxCell id="LASjsoPwDw27AKE4j7nq-8" value="" style="endArrow=classic;html=1;rounded=0;entryX=0.5;entryY=0;entryDx=0;entryDy=0;exitX=0.5;exitY=1;exitDx=0;exitDy=0;dashed=1;strokeColor=#5f5d5d;" edge="1" parent="1" source="LASjsoPwDw27AKE4j7nq-4" target="LASjsoPwDw27AKE4j7nq-3">
          <mxGeometry width="50" height="50" relative="1" as="geometry">
            <mxPoint x="400" y="310" as="sourcePoint" />
            <mxPoint x="450" y="260" as="targetPoint" />
          </mxGeometry>
        </mxCell>
        <mxCell id="LASjsoPwDw27AKE4j7nq-9" value="" style="endArrow=classic;html=1;rounded=0;entryX=0.5;entryY=1;entryDx=0;entryDy=0;exitX=0.5;exitY=0;exitDx=0;exitDy=0;dashed=1;strokeColor=#5f5d5d;" edge="1" parent="1" source="LASjsoPwDw27AKE4j7nq-2" target="LASjsoPwDw27AKE4j7nq-3">
          <mxGeometry width="50" height="50" relative="1" as="geometry">
            <mxPoint x="470" y="210" as="sourcePoint" />
            <mxPoint x="490" y="250" as="targetPoint" />
          </mxGeometry>
        </mxCell>
        <mxCell id="LASjsoPwDw27AKE4j7nq-11" value="On Init" style="text;strokeColor=none;align=center;fillColor=none;html=1;verticalAlign=middle;whiteSpace=wrap;rounded=0;fontColor=#5a5858;" vertex="1" parent="1">
          <mxGeometry x="470" y="310" width="60" height="30" as="geometry" />
        </mxCell>
        <mxCell id="LASjsoPwDw27AKE4j7nq-12" value="On Init" style="text;strokeColor=none;align=center;fillColor=none;html=1;verticalAlign=middle;whiteSpace=wrap;rounded=0;fontColor=#5a5858;" vertex="1" parent="1">
          <mxGeometry x="470" y="210" width="60" height="30" as="geometry" />
        </mxCell>
        <mxCell id="LASjsoPwDw27AKE4j7nq-13" value="&lt;font face=&quot;Courier New&quot;&gt;/svc1/**&lt;/font&gt;" style="text;strokeColor=none;align=center;fillColor=none;html=1;verticalAlign=middle;whiteSpace=wrap;rounded=0;" vertex="1" parent="1">
          <mxGeometry x="280" y="180" width="60" height="30" as="geometry" />
        </mxCell>
        <mxCell id="LASjsoPwDw27AKE4j7nq-14" value="&lt;font face=&quot;Courier New&quot;&gt;/svc2/**&lt;/font&gt;" style="text;strokeColor=none;align=center;fillColor=none;html=1;verticalAlign=middle;whiteSpace=wrap;rounded=0;" vertex="1" parent="1">
          <mxGeometry x="280" y="330" width="60" height="30" as="geometry" />
        </mxCell>
      </root>
    </mxGraphModel>
  </diagram>
</mxfile>
